<?xml version="1.0" encoding="UTF-8"?>
<!DOCTYPE svg PUBLIC "-//W3C//DTD SVG 1.1//EN" "http://www.w3.org/Graphics/SVG/1.1/DTD/svg11.dtd">
<!-- Creator: CorelDRAW 2021 (64-Bit) -->
<svg xmlns="http://www.w3.org/2000/svg" xml:space="preserve" width="42.333mm" height="23.207mm" version="1.1" style="shape-rendering:geometricPrecision; text-rendering:geometricPrecision; image-rendering:optimizeQuality; fill-rule:evenodd; clip-rule:evenodd"
viewBox="0 0 4233.3 2320.7"
 xmlns:xlink="http://www.w3.org/1999/xlink"
 xmlns:xodm="http://www.corel.com/coreldraw/odm/2003">
 <defs>
  <style type="text/css">
   <![CDATA[
    .fil0 {fill:black;fill-rule:nonzero}
    .fil1 {fill:white;fill-rule:nonzero}
   ]]>
  </style>
 </defs>
 <g id="Capa_x0020_1">
  <metadata id="CorelCorpID_0Corel-Layer"/>
  <g id="_1751038313472">
   <path class="fil0" d="M451.81 969.56l-225.43 0.67c-3.09,0 -4.63,-1.54 -4.63,-4.62l0.52 -727.41c0.01,-1.52 1.28,-2.76 2.84,-2.76l211.63 0.9c4.09,0 6.12,-2.07 6.12,-6.2l-0.82 -219.84c0,-0.05 0,-0.06 0,-0.07 0,-1.2 1.01,-2.17 2.24,-2.17 0.01,0 0.02,0 0.04,0l964.36 0.08c3.47,0 6.27,2.8 6.27,6.27l0.15 215.66c0,3.98 1.99,5.97 5.97,5.97l190 -0.15c-0.01,0 0,0 0.01,0 3.33,0 6.04,2.67 6.04,5.96 0,0.02 0,0.03 0,0.05l-1.35 195.93c0,0.02 0,0.05 0,0.07 0,5.15 4.18,9.33 9.33,9.33 0,0 0,0 0,0l436.7 -0.15c2.63,0 4.77,2.13 4.77,4.77l0.22 129.13c0.01,3.05 2.45,5.52 5.45,5.52l78.55 0.89c0.03,0.01 0.05,0.01 0.08,0.01 1.68,0 3.06,-1.37 3.06,-3.06 0,-0.03 0,-0.05 0,-0.08l-0.9 -137.63c0,-0.03 0,-0.05 0,-0.08 0,-3.08 2.51,-5.59 5.59,-5.59 0,0 0,0 0,0l1784.02 0c3.18,0 5.75,2.6 5.75,5.82l-0.53 143.75c0,0.11 0,0.13 0,0.14 0.08,4.53 3.79,8.14 8.28,8.07 0.01,0 0.02,-0.01 0.03,-0.01l126.05 -0.29c3.5,0 6.34,2.83 6.34,6.34l-0.23 128.75c0,0.05 0,0.07 0,0.08 0,2.8 2.31,5.07 5.15,5.07 0.02,0 0.03,0 0.04,0l135.21 0.75c2.4,0.06 4.28,2.04 4.25,4.44l0.3 759.73c0,1.61 -1.3,2.91 -2.91,2.91l-138.16 -0.52c-2.28,0 -3.43,1.12 -3.43,3.36l-0.3 137.33c-0.03,2.69 -2.23,4.85 -4.92,4.85 0,0 0,0 0,0l-569.49 -0.37c-2.63,0 -4.15,1.29 -4.54,3.88 -1.65,10.69 -2.84,21.78 -3.59,33.27 -4.87,77.63 -6.41,160.71 -4.62,249.23 0,0.1 0,0.13 0,0.15 0,2.97 -2.44,5.37 -5.45,5.37 -0.02,0 -0.05,0 -0.07,0l-603.27 -0.14c0,-0.01 0,-0.01 0,-0.01 -2.47,0 -4.48,-2 -4.48,-4.47 0,-0.03 0,-0.05 0,-0.08l1.2 -136.74c0.05,-3.28 -1.55,-4.94 -4.78,-4.99l-98.47 -2.54c-3.43,-0.05 -5.15,1.62 -5.15,5l0 133.68c0,1.93 -1.57,3.5 -3.5,3.5l-680.05 0.38c-3.62,0 -6.56,2.97 -6.56,6.64l0.6 381.27c0,2.79 -1.4,4.18 -4.18,4.18l-1861.75 -0.45c-2.22,0 -4.03,-1.84 -4.03,-4.1l0.74 -225.89c-0.01,-2.44 -1.99,-4.38 -4.43,-4.4l-211.75 -0.15c-3.21,0 -5.82,-2.61 -5.82,-5.82l-0.15 -701.89c0,-3.05 2.47,-5.53 5.52,-5.53l444.39 0.01c4.82,0 7.23,-2.41 7.23,-7.24l-0.15 -398.57c0,-3.43 -1.71,-5.15 -5.15,-5.15zm261.62 661.54c0.01,2.5 -2.03,4.54 -4.54,4.54l-448.87 -0.22c-2.51,0 -4.54,2.04 -4.54,4.55l0.36 208.5c0.01,2.51 2.05,4.55 4.56,4.55l1328.96 -0.15c2.52,0 4.55,-2.04 4.55,-4.55l0.15 -208.27c0,-2.52 -2.04,-4.56 -4.55,-4.56l-441.02 0.23c-2.5,-0.01 -4.54,-2.04 -4.54,-4.56l-0.16 -1361.11c0.01,-2.51 -2.03,-4.55 -4.54,-4.55l-421.42 0c-2.5,0 -4.54,2.04 -4.54,4.55l0.66 220.22c0.01,2.51 -2.03,4.55 -4.54,4.55l-219.92 -0.45c0,0 0,0 0,0 -2.51,0 -4.55,2.04 -4.55,4.55 0,0.02 0,0.05 0,0.08l2.01 207.61c0.04,2.48 2.07,4.47 4.55,4.47 0.03,0 0.05,0 0.08,0l217.9 -2.46c0.03,0 0.05,0 0.08,0 2.51,0 4.55,2.04 4.55,4.55 0,0 0,0 0,0l-0.68 917.93zm1178.35 -149.28c-2.01,0 -3.65,-1.64 -3.65,-3.66l-0.15 -846.75c0,-2.02 -1.63,-3.66 -3.65,-3.66l-260.8 0.6c-2.02,0 -3.65,1.64 -3.65,3.66l0.36 846.16c0.01,2.01 1.65,3.65 3.66,3.65l138.68 -0.45c0,0 0,0 0,0 2.02,0 3.66,1.64 3.66,3.66 0,0.02 0,0.04 0,0.07l-2.84 136.52c0,0.02 0,0.05 0,0.07 0,2.02 1.64,3.66 3.66,3.66 0,0 0,0 0,0l702.57 0c0,0 0,0 0,0 2.02,0 3.65,-1.64 3.65,-3.66 0,-0.02 0,-0.05 0,-0.07l-2.68 -136.44c0,-0.03 0,-0.06 0,-0.08 0,-2.02 1.63,-3.65 3.65,-3.65 0,0 0,0 0,0l138.98 0.3c2.02,-0.01 3.65,-1.64 3.65,-3.66l0.45 -846.38c0,-2.02 -1.64,-3.66 -3.65,-3.66l-275.72 0.08c-2.02,0 -3.65,1.63 -3.65,3.65l0.59 846.24c0,2.01 -1.63,3.65 -3.65,3.65l-439.47 0.15zm1299.07 -149.34c0,-1.61 1.3,-2.91 2.91,-2.91l569.85 0.97c1.6,0 2.91,-1.31 2.91,-2.91l-0.45 -123.16c0,-1.61 1.3,-2.91 2.91,-2.91l136.81 0.22c1.61,0 2.91,-1.3 2.91,-2.91l-0.6 -432.88c0.01,-1.61 -1.3,-2.91 -2.9,-2.91l-138.98 0.14c-1.61,0.01 -2.91,-1.3 -2.91,-2.9l0.22 -129.58c0,-1.61 -1.3,-2.91 -2.91,-2.91l-836.54 0.37c-1.6,0 -2.91,1.3 -2.91,2.91l0 983.95c0,1.6 1.31,2.9 2.91,2.9l264.3 0.3c1.61,0 2.92,-1.3 2.92,-2.91l-0.45 -282.87z"/>
   <path class="fil1" d="M713.43 1631.1l0.68 -917.93c0,0 0,0 0,0 0,-2.51 -2.04,-4.55 -4.55,-4.55 -0.03,0 -0.05,0 -0.08,0l-217.9 2.46c-0.03,0 -0.05,0 -0.08,0 -2.48,0 -4.51,-1.99 -4.55,-4.48l-2.01 -207.6c0,-0.03 0,-0.06 0,-0.08 0,-2.51 2.04,-4.55 4.55,-4.55 0,0 0,0 0,0l219.91 0.45c2.52,0 4.56,-2.04 4.56,-4.55l-0.68 -220.22c0.01,-2.51 2.05,-4.55 4.56,-4.55l421.4 0c2.52,0 4.56,2.04 4.56,4.55l0.14 1361.12c0.01,2.51 2.05,4.54 4.56,4.54l441.01 -0.21c2.51,-0.01 4.55,2.03 4.55,4.54l-0.15 208.28c0,2.51 -2.03,4.55 -4.55,4.55l-1328.96 0.16c-2.51,-0.01 -4.55,-2.05 -4.55,-4.56l-0.38 -208.5c0.01,-2.51 2.04,-4.55 4.56,-4.55l448.85 0.22c2.52,0 4.56,-2.04 4.56,-4.55l-0.01 0.01z"/>
   <path class="fil1" d="M1891.78 1481.82l439.47 -0.15c2.02,0 3.65,-1.64 3.65,-3.66l-0.59 -846.23c0,-2.02 1.63,-3.65 3.65,-3.65l275.72 -0.08c2.01,0 3.65,1.64 3.65,3.66l-0.45 846.38c0,2.02 -1.63,3.65 -3.65,3.65l-138.98 -0.29c0,0 0,0 0,0 -2.02,0 -3.65,1.63 -3.65,3.65 0,0.02 0,0.05 0,0.08l2.68 136.44c0,0.02 0,0.05 0,0.07 0,2.02 -1.63,3.66 -3.65,3.66 0,0 0,0 0,0l-702.58 0c0.01,0 0.01,0 0.01,0 -2.02,0 -3.66,-1.64 -3.66,-3.66 0,-0.02 0,-0.05 0,-0.07l2.83 -136.52c0.01,-0.03 0.01,-0.05 0.01,-0.07 0,-2.02 -1.64,-3.66 -3.66,-3.66 0,0 0,0 0,0l-138.68 0.45c-2.01,0 -3.65,-1.64 -3.65,-3.66l-0.38 -846.15c0.01,-2.02 1.64,-3.66 3.66,-3.66l260.8 -0.6c2.02,0 3.65,1.64 3.65,3.66l0.15 846.76c0,2.01 1.64,3.65 3.66,3.65l-0.01 0z"/>
   <path class="fil1" d="M3190.85 1332.48l0.45 282.87c0,1.61 -1.31,2.91 -2.92,2.91l-264.3 -0.3c-1.6,0 -2.91,-1.3 -2.91,-2.91l0 -983.94c0,-1.61 1.31,-2.91 2.91,-2.91l836.54 -0.37c1.61,0 2.91,1.3 2.91,2.91l-0.22 129.58c0,1.6 1.3,2.91 2.91,2.91l138.98 -0.15c1.6,0 2.91,1.3 2.91,2.91l0.59 432.88c0,1.61 -1.3,2.91 -2.91,2.91l-136.81 -0.22c-1.61,0 -2.91,1.3 -2.91,2.91l0.45 123.16c0,1.6 -1.31,2.91 -2.91,2.91l-569.85 -0.97c-1.61,0 -2.91,1.3 -2.91,2.91zm449.07 -567.32c0,-1.11 -0.9,-2.01 -2.01,-2.01l-444.75 0c-1.11,0 -2.02,0.9 -2.02,2.01l0.01 437.14c-0.01,1.12 0.9,2.02 2.01,2.02l444.75 -0.01c1.11,0.01 2.01,-0.89 2.01,-2.01l0 -437.14z"/>
   <path class="fil0" d="M3193.16 763.15l444.75 0c1.11,0 2.01,0.9 2.01,2.01l0 437.14c0,1.12 -0.9,2.02 -2.01,2.02l-444.75 -0.01c-1.11,0.01 -2.02,-0.89 -2.02,-2.01l0.01 -437.14c-0.01,-1.11 0.9,-2.01 2.01,-2.01z"/>
  </g>
 </g>
</svg>
